<svg width="155" height="23" viewBox="0 0 155 23" fill="none" xmlns="http://www.w3.org/2000/svg">
<path d="M13.1175 12.652C13.1175 11.9613 14.0975 11.3733 16.0575 10.888C17.4388 10.5333 18.7455 10.3187 19.9775 10.244V7.724C19.6415 7.79867 19.1935 7.836 18.6335 7.836C16.3002 7.836 15.1335 7.444 15.1335 6.66C15.1335 5.44667 17.3082 4.71867 21.6575 4.476L21.6295 0.751998C21.2002 0.714666 20.6028 0.695999 19.8375 0.695999C16.6642 0.695999 13.6402 1.032 10.7655 1.704C6.47217 2.73067 4.3255 4.28 4.3255 6.352C4.3255 7.17333 4.78283 7.864 5.6975 8.424C6.40683 8.85333 7.24683 9.152 8.2175 9.32C3.36417 10.272 0.9375 11.8307 0.9375 13.996C0.9375 15.4893 2.52417 16.6373 5.6975 17.44C7.9375 18 10.1682 18.28 12.3895 18.28C17.5602 18.28 21.2002 17.972 23.3095 17.356V14.612C22.1708 14.9107 20.7522 15.06 19.0535 15.06C17.7842 15.06 16.6082 14.92 15.5255 14.64C13.9202 14.2107 13.1175 13.548 13.1175 12.652ZM36.1287 12.82C35.9047 12.4467 35.522 12.064 34.9807 11.672C34.57 11.3733 34.1594 11.0747 33.7487 10.776C33.3007 11.2987 32.6194 12.064 31.7047 13.072C32.806 12.8667 33.814 12.764 34.7287 12.764C35.158 12.764 35.6247 12.7827 36.1287 12.82ZM35.8207 15.032C35.5594 15.0133 35.3167 15.004 35.0927 15.004C33.338 15.004 32.4327 15.1627 32.3767 15.48C32.5447 15.648 32.9554 15.732 33.6087 15.732C34.6727 15.732 35.41 15.4987 35.8207 15.032ZM48.0287 19.12C46.9647 18.1867 45.126 17.3 42.5127 16.46C41.654 17.0013 40.2634 17.4493 38.3407 17.804C36.6607 18.1027 35.158 18.252 33.8327 18.252C32.4327 18.252 31.126 18.14 29.9127 17.916C27.8967 17.5613 26.898 16.964 26.9167 16.124V16.012C25.834 16.516 24.63 16.9547 23.3047 17.328V14.64C25.0407 14.2293 26.702 13.3893 28.2887 12.12C29.7074 10.9813 30.8647 9.684 31.7607 8.228C31.5554 7.87333 31.4527 7.50933 31.4527 7.136C31.4527 6.464 31.6954 5.86667 32.1807 5.344H40.7767C40.59 5.71733 40.4967 6.08133 40.4967 6.436C40.4967 7.08933 40.9167 7.752 41.7567 8.424C42.5407 9.00267 43.3247 9.58133 44.1087 10.16C44.9674 10.9253 45.3967 11.7467 45.3967 12.624C45.3967 13.072 45.238 13.5573 44.9207 14.08C46.134 14.36 47.17 14.668 48.0287 15.004V19.12ZM61.6314 6.38L56.3394 6.408C54.2861 6.408 52.4661 6.86533 50.8794 7.78C48.9941 8.86267 48.0141 10.3653 47.9394 12.288V12.568C47.8834 14.36 48.9288 15.788 51.0754 16.852C52.8114 17.7293 54.6968 18.168 56.7314 18.168C57.7021 18.168 58.7194 18.0933 59.7834 17.944C61.2208 17.7573 62.1821 17.4867 62.6674 17.132L62.6954 22.508L70.4514 22.48L70.4234 6.52H62.6954C62.6768 7.248 62.6768 8.19067 62.6954 9.348C62.7141 10.86 62.7234 11.7933 62.7234 12.148C62.7234 12.9507 62.4528 13.5573 61.9114 13.968C61.3888 14.36 60.7168 14.556 59.8954 14.556C57.6181 14.556 56.4794 13.8 56.4794 12.288C56.4794 11.3547 56.9928 10.6733 58.0194 10.244C58.7848 9.92667 59.7368 9.768 60.8754 9.768C61.1368 9.768 61.3888 9.77733 61.6314 9.796V6.38ZM71.6758 6.492V13.912C71.6758 15.3307 72.6184 16.432 74.5038 17.216C75.9598 17.832 77.4998 18.14 79.1238 18.14C81.4758 18.14 83.4918 17.6733 85.1718 16.74C85.6571 17.2253 86.5344 17.5987 87.8038 17.86C88.8118 18.0653 89.8011 18.168 90.7718 18.168C93.6838 18.168 95.8211 17.888 97.1838 17.328V14.612C97.0718 14.6307 96.7264 14.7053 96.1478 14.836C95.6998 14.9293 95.3451 14.976 95.0838 14.976C94.4491 14.976 93.9078 14.7987 93.4598 14.444C93.0304 14.0893 92.8158 13.604 92.8158 12.988L92.7878 6.492H84.4438V12.876C84.4438 13.4733 84.2198 13.9493 83.7718 14.304C83.3238 14.64 82.7918 14.808 82.1758 14.808C81.5784 14.808 81.0651 14.64 80.6358 14.304C80.2064 13.968 79.9918 13.492 79.9918 12.876L79.9638 6.492H71.6758ZM106.316 18.308C100.996 18.308 98.3355 17.0013 98.3355 14.388V6.492L106.652 6.52L106.68 13.772C106.68 14.7613 107.296 15.256 108.528 15.256C109.218 15.256 110.03 15.032 110.964 14.584V17.328C110.497 17.5893 109.778 17.8133 108.808 18C107.856 18.2053 107.025 18.308 106.316 18.308ZM102.564 4.532C103.516 4.532 104.468 4.38267 105.419 4.084C106.708 3.65467 107.352 3.05733 107.352 2.292C107.352 1.52667 106.708 0.938665 105.419 0.528C104.468 0.229332 103.516 0.0799987 102.564 0.0799987C101.593 0.0799987 100.641 0.229332 99.7075 0.528C98.4008 0.938665 97.7475 1.52667 97.7475 2.292C97.7475 3.05733 98.4008 3.65467 99.7075 4.084C100.641 4.38267 101.593 4.532 102.564 4.532ZM113.965 10.188C113.162 10.3 112.397 10.132 111.669 9.684C110.941 9.21733 110.558 8.592 110.521 7.808C110.465 6.61333 111.137 5.71733 112.537 5.12C112.873 4.97067 113.246 4.896 113.657 4.896C114.31 4.896 114.954 5.064 115.589 5.4C116.167 5.71733 116.559 6.09067 116.765 6.52H130.821V10.104H128.637C127.741 10.72 127.293 11.4387 127.293 12.26C127.293 12.9693 127.629 13.5853 128.301 14.108C128.917 14.5747 129.579 14.808 130.289 14.808C130.942 14.808 131.539 14.7427 132.081 14.612V17.328C130.457 17.8133 128.59 18.056 126.481 18.056C124.819 18.056 123.391 17.776 122.197 17.216C120.629 16.4693 119.845 15.3493 119.845 13.856C119.845 12.512 120.722 11.252 122.477 10.076H117.157C116.503 13.9587 114.431 16.376 110.941 17.328V14.64C111.781 14.304 112.415 13.8653 112.845 13.324C113.405 12.6147 113.778 11.5693 113.965 10.188ZM137.707 11.532C134.645 12.3907 133.115 13.4827 133.115 14.808C133.115 16.2453 134.617 17.2627 137.623 17.86C139.359 18.196 141.356 18.364 143.615 18.364C147.871 18.364 151.343 18.0187 154.031 17.328L154.059 14.612C152.92 15.0227 150.923 15.228 148.067 15.228C144.8 15.228 143.167 14.78 143.167 13.884C143.167 13.0627 144.893 12.4187 148.347 11.952L148.375 10.244C147.796 10.3 147.077 10.2533 146.219 10.104C145.173 9.91733 144.651 9.64667 144.651 9.292C144.651 8.844 145.537 8.564 147.311 8.452C148.412 8.43333 149.504 8.40533 150.587 8.368L150.615 5.568C149.607 5.512 148.524 5.484 147.367 5.484C144.007 5.484 141.253 5.69867 139.107 6.128C136.083 6.76267 134.571 7.78 134.571 9.18C134.571 9.684 134.972 10.188 135.775 10.692C136.353 11.0467 136.997 11.3267 137.707 11.532Z" fill="#B5CA88"/>
</svg>
