<svg width="24" height="24" viewBox="0 0 24 24" fill="none" xmlns="http://www.w3.org/2000/svg">
<g clip-path="url(#clip0_220_672)">
<path d="M21.4286 1.5H2.57143C1.88944 1.5 1.23539 1.73705 0.753154 2.15901C0.270918 2.58097 0 3.15326 0 3.75L0 20.25C0 20.8467 0.270918 21.419 0.753154 21.841C1.23539 22.2629 1.88944 22.5 2.57143 22.5H9.92411V15.3605H6.54911V12H9.92411V9.43875C9.92411 6.52547 11.9063 4.91625 14.9421 4.91625C16.3961 4.91625 17.9164 5.14313 17.9164 5.14313V8.0025H16.2413C14.5907 8.0025 14.0759 8.89875 14.0759 9.81797V12H17.7605L17.1713 15.3605H14.0759V22.5H21.4286C22.1106 22.5 22.7646 22.2629 23.2468 21.841C23.7291 21.419 24 20.8467 24 20.25V3.75C24 3.15326 23.7291 2.58097 23.2468 2.15901C22.7646 1.73705 22.1106 1.5 21.4286 1.5V1.5Z" fill="white"/>
</g>
<defs>
<clipPath id="clip0_220_672">
<rect width="24" height="24" fill="white"/>
</clipPath>
</defs>
</svg>
