<svg width="187" height="56" viewBox="0 0 187 56" fill="none" xmlns="http://www.w3.org/2000/svg">
<path d="M4.54297 28H1.82422C1.76172 28 1.73047 27.9609 1.73047 27.8828L1.75391 11.3945C1.75391 11.332 1.79297 11.3008 1.87109 11.3008H4.54297C4.62109 11.3008 4.66016 11.332 4.66016 11.3945L4.63672 17.9219H8.23438V11.3945C8.23438 11.332 8.26562 11.3008 8.32812 11.3008H11C11.0781 11.3008 11.1172 11.332 11.1172 11.3945L11.1641 27.8828C11.1641 27.9609 11.125 28 11.0469 28H8.35156C8.27344 28 8.23438 27.9609 8.23438 27.8828V20.8281H4.63672V27.8828C4.63672 27.9609 4.60547 28 4.54297 28ZM17.5391 28.2344C16.6953 28.2344 15.9141 28.0156 15.1953 27.5781C14.4766 27.1406 13.9023 26.5547 13.4727 25.8203C13.0508 25.0781 12.8398 24.2695 12.8398 23.3945L12.8867 11.3945C12.8867 11.332 12.918 11.3008 12.9805 11.3008H15.6758C15.7383 11.3008 15.7695 11.332 15.7695 11.3945V23.3945C15.7695 23.9336 15.9414 24.3945 16.2852 24.7773C16.6289 25.1523 17.0469 25.3398 17.5391 25.3398C18.0547 25.3398 18.4844 25.1523 18.8281 24.7773C19.1719 24.3945 19.3438 23.9336 19.3438 23.3945V11.3945C19.3438 11.332 19.375 11.3008 19.4375 11.3008H22.1328C22.1953 11.3008 22.2266 11.332 22.2266 11.3945L22.2734 23.3945C22.2734 24.2773 22.0625 25.0898 21.6406 25.832C21.2109 26.5664 20.6406 27.1523 19.9297 27.5898C19.2188 28.0195 18.4219 28.2344 17.5391 28.2344ZM26.9727 28H24.2539C24.1914 28 24.1602 27.9609 24.1602 27.8828L24.207 11.3945C24.207 11.332 24.2383 11.3008 24.3008 11.3008H27.2305C27.293 11.3008 27.3477 11.332 27.3945 11.3945L29.5859 14.5586L31.7656 11.3945C31.8125 11.332 31.8711 11.3008 31.9414 11.3008H34.8828C34.9531 11.3008 34.9883 11.332 34.9883 11.3945L35.0352 27.8828C35.0352 27.9609 35.0039 28 34.9414 28H32.2227C32.1602 28 32.1289 27.9609 32.1289 27.8828L32.1055 15.6367L29.5859 19.293L27.0898 15.6367L27.0664 27.8828C27.0664 27.9609 27.0352 28 26.9727 28ZM36.2422 27.8828L39.2188 11.3945C39.2344 11.332 39.2734 11.3008 39.3359 11.3008H42.8164C42.8789 11.3008 42.918 11.332 42.9336 11.3945L45.793 27.8828C45.8008 27.9609 45.7695 28 45.6992 28H43.0391C42.9609 28 42.918 27.9609 42.9102 27.8828L42.6523 26.125H39.3828L39.125 27.8828C39.1172 27.9609 39.0781 28 39.0078 28H36.3359C36.2734 28 36.2422 27.9609 36.2422 27.8828ZM40.9414 16.8203L39.8633 23.5586H42.1719L41.1875 16.8203L41.0469 15.9297L40.9414 16.8203ZM49.9062 28H47.5039C47.3789 28 47.3164 27.9453 47.3164 27.8359L47.293 11.4883C47.293 11.3633 47.3555 11.3008 47.4805 11.3008H49.6484L53.7031 20.7578L53.5859 11.4883C53.5859 11.3633 53.6562 11.3008 53.7969 11.3008H56.1758C56.2695 11.3008 56.3164 11.3633 56.3164 11.4883L56.3398 27.8594C56.3398 27.9531 56.3008 28 56.2227 28H54.1133L49.9531 19.1641L50.1289 27.8125C50.1289 27.9375 50.0547 28 49.9062 28ZM62.5039 28.2344C61.6523 28.2344 60.8672 28.0156 60.1484 27.5781C59.4375 27.1406 58.8672 26.5586 58.4375 25.832C58.0156 25.0977 57.8047 24.293 57.8047 23.418V22.3164C57.8047 22.2305 57.8438 22.1875 57.9219 22.1875H60.6172C60.6797 22.1875 60.7109 22.2305 60.7109 22.3164V23.418C60.7109 23.9414 60.8867 24.3945 61.2383 24.7773C61.5898 25.1523 62.0117 25.3398 62.5039 25.3398C63.0039 25.3398 63.4297 25.1484 63.7812 24.7656C64.1328 24.375 64.3086 23.9258 64.3086 23.418C64.3086 22.832 63.9258 22.3203 63.1602 21.8828C63.0352 21.8047 62.8711 21.7109 62.668 21.6016C62.4727 21.4844 62.2383 21.3516 61.9648 21.2031C61.6914 21.0547 61.4258 20.9102 61.168 20.7695C60.9102 20.6211 60.6602 20.4805 60.418 20.3477C59.543 19.832 58.8906 19.1875 58.4609 18.4141C58.0391 17.6328 57.8281 16.7578 57.8281 15.7891C57.8281 14.8984 58.0469 14.0938 58.4844 13.375C58.9219 12.6641 59.4922 12.1016 60.1953 11.6875C60.9062 11.2656 61.6758 11.0547 62.5039 11.0547C63.3555 11.0547 64.1367 11.2656 64.8477 11.6875C65.5586 12.1172 66.125 12.6875 66.5469 13.3984C66.9766 14.1094 67.1914 14.9062 67.1914 15.7891V17.7578C67.1914 17.8203 67.1602 17.8516 67.0977 17.8516H64.4023C64.3398 17.8516 64.3086 17.8203 64.3086 17.7578L64.2852 15.7891C64.2852 15.2266 64.1094 14.7695 63.7578 14.418C63.4062 14.0664 62.9883 13.8906 62.5039 13.8906C62.0117 13.8906 61.5898 14.0781 61.2383 14.4531C60.8867 14.8281 60.7109 15.2734 60.7109 15.7891C60.7109 16.3125 60.8203 16.75 61.0391 17.1016C61.2656 17.4531 61.6758 17.7891 62.2695 18.1094C62.332 18.1406 62.4766 18.2188 62.7031 18.3438C62.9297 18.4688 63.1797 18.6094 63.4531 18.7656C63.7344 18.9141 63.9883 19.0508 64.2148 19.1758C64.4414 19.293 64.5781 19.3633 64.625 19.3867C65.4219 19.832 66.0508 20.3789 66.5117 21.0273C66.9805 21.6758 67.2148 22.4727 67.2148 23.418C67.2148 24.332 67.0039 25.1523 66.582 25.8789C66.1523 26.6055 65.582 27.1797 64.8711 27.6016C64.1602 28.0234 63.3711 28.2344 62.5039 28.2344ZM79.5547 28.2344C78.7031 28.2344 77.918 28.0156 77.1992 27.5781C76.4883 27.1406 75.9141 26.5586 75.4766 25.832C75.0469 25.0977 74.832 24.293 74.832 23.418L74.8555 15.8125C74.8555 14.9219 75.0703 14.1211 75.5 13.4102C75.9219 12.6914 76.4922 12.1172 77.2109 11.6875C77.9297 11.25 78.7109 11.0312 79.5547 11.0312C80.4297 11.0312 81.2148 11.2461 81.9102 11.6758C82.6133 12.1055 83.1758 12.6836 83.5977 13.4102C84.0273 14.1289 84.2422 14.9297 84.2422 15.8125L84.2656 23.418C84.2656 24.293 84.0547 25.0938 83.6328 25.8203C83.2031 26.5547 82.6328 27.1406 81.9219 27.5781C81.2109 28.0156 80.4219 28.2344 79.5547 28.2344ZM79.5547 25.3398C80.0391 25.3398 80.4609 25.1445 80.8203 24.7539C81.1797 24.3555 81.3594 23.9102 81.3594 23.418L81.3359 15.8125C81.3359 15.2812 81.168 14.832 80.832 14.4648C80.4961 14.0977 80.0703 13.9141 79.5547 13.9141C79.0625 13.9141 78.6406 14.0938 78.2891 14.4531C77.9375 14.8125 77.7617 15.2656 77.7617 15.8125V23.418C77.7617 23.9414 77.9375 24.3945 78.2891 24.7773C78.6406 25.1523 79.0625 25.3398 79.5547 25.3398ZM88.8945 28H86.1992C86.1211 28 86.082 27.9609 86.082 27.8828L86.1289 11.3945C86.1289 11.332 86.1602 11.3008 86.2227 11.3008H93.9102C93.9883 11.3008 94.0273 11.332 94.0273 11.3945V14.1016C94.0273 14.1641 93.9961 14.1953 93.9336 14.1953H89.0117V17.9219H93.9336C93.9961 17.9219 94.0273 17.9609 94.0273 18.0391L94.0508 20.7578C94.0508 20.8203 94.0117 20.8516 93.9336 20.8516H89.0117V27.8828C89.0117 27.9609 88.9727 28 88.8945 28ZM105.031 28H102.629C102.504 28 102.441 27.9453 102.441 27.8359L102.418 11.4883C102.418 11.3633 102.48 11.3008 102.605 11.3008H104.773L108.828 20.7578L108.711 11.4883C108.711 11.3633 108.781 11.3008 108.922 11.3008H111.301C111.395 11.3008 111.441 11.3633 111.441 11.4883L111.465 27.8594C111.465 27.9531 111.426 28 111.348 28H109.238L105.078 19.1641L105.254 27.8125C105.254 27.9375 105.18 28 105.031 28ZM121.402 28H113.645C113.582 28 113.551 27.9609 113.551 27.8828L113.574 11.3945C113.574 11.332 113.605 11.3008 113.668 11.3008H121.379C121.441 11.3008 121.473 11.3398 121.473 11.418V14.1016C121.473 14.1641 121.441 14.1953 121.379 14.1953H116.457V17.9453H121.379C121.441 17.9453 121.473 17.9766 121.473 18.0391L121.496 20.7578C121.496 20.8203 121.465 20.8516 121.402 20.8516H116.457V25.0469H121.402C121.465 25.0469 121.496 25.0859 121.496 25.1641V27.9062C121.496 27.9688 121.465 28 121.402 28ZM128.258 28H125.352C125.281 28 125.242 27.9609 125.234 27.8828L122.398 11.3945C122.383 11.332 122.406 11.3008 122.469 11.3008H125.164C125.227 11.3008 125.266 11.332 125.281 11.3945L126.816 22.2344L128.398 11.3945C128.414 11.332 128.461 11.3008 128.539 11.3008H130.707C130.77 11.3008 130.809 11.332 130.824 11.3945L132.383 22.2344L133.941 11.3945C133.957 11.332 133.996 11.3008 134.059 11.3008H136.73C136.809 11.3008 136.84 11.332 136.824 11.3945L133.965 27.8828C133.957 27.9141 133.934 27.9414 133.895 27.9648L133.848 28H130.941C130.895 28 130.855 27.9609 130.824 27.8828L129.594 19.2695L128.375 27.8828C128.367 27.9609 128.328 28 128.258 28ZM149.469 28H146.715C146.66 28 146.633 27.9688 146.633 27.9062L146.656 21.0859L143.445 11.3945C143.43 11.332 143.453 11.3008 143.516 11.3008H146.188C146.266 11.3008 146.312 11.332 146.328 11.3945L148.098 17.8516L149.902 11.3945C149.918 11.332 149.957 11.3008 150.02 11.3008H152.715C152.777 11.3008 152.801 11.332 152.785 11.3945L149.539 20.9922L149.562 27.9062C149.562 27.9688 149.531 28 149.469 28ZM157.812 28.2344C156.961 28.2344 156.176 28.0156 155.457 27.5781C154.746 27.1406 154.172 26.5586 153.734 25.832C153.305 25.0977 153.09 24.293 153.09 23.418L153.113 15.8125C153.113 14.9219 153.328 14.1211 153.758 13.4102C154.18 12.6914 154.75 12.1172 155.469 11.6875C156.188 11.25 156.969 11.0312 157.812 11.0312C158.688 11.0312 159.473 11.2461 160.168 11.6758C160.871 12.1055 161.434 12.6836 161.855 13.4102C162.285 14.1289 162.5 14.9297 162.5 15.8125L162.523 23.418C162.523 24.293 162.312 25.0938 161.891 25.8203C161.461 26.5547 160.891 27.1406 160.18 27.5781C159.469 28.0156 158.68 28.2344 157.812 28.2344ZM157.812 25.3398C158.297 25.3398 158.719 25.1445 159.078 24.7539C159.438 24.3555 159.617 23.9102 159.617 23.418L159.594 15.8125C159.594 15.2812 159.426 14.832 159.09 14.4648C158.754 14.0977 158.328 13.9141 157.812 13.9141C157.32 13.9141 156.898 14.0938 156.547 14.4531C156.195 14.8125 156.02 15.2656 156.02 15.8125V23.418C156.02 23.9414 156.195 24.3945 156.547 24.7773C156.898 25.1523 157.32 25.3398 157.812 25.3398ZM167.152 28H164.434C164.371 28 164.34 27.9609 164.34 27.8828L164.387 11.3945C164.387 11.332 164.418 11.3008 164.48 11.3008H169.332C170.199 11.3008 170.996 11.5117 171.723 11.9336C172.449 12.3555 173.027 12.9219 173.457 13.6328C173.895 14.3438 174.113 15.1484 174.113 16.0469C174.113 16.6328 174.023 17.1641 173.844 17.6406C173.664 18.1172 173.453 18.5195 173.211 18.8477C172.977 19.1758 172.762 19.418 172.566 19.5742C173.434 20.5352 173.867 21.6641 173.867 22.9609L173.891 27.8828C173.891 27.9609 173.852 28 173.773 28H171.055C170.992 28 170.961 27.9766 170.961 27.9297V22.9609C170.961 22.3828 170.758 21.8828 170.352 21.4609C169.945 21.0391 169.445 20.8281 168.852 20.8281H167.27L167.246 27.8828C167.246 27.9609 167.215 28 167.152 28ZM169.332 14.1719H167.27V17.9453H169.332C169.824 17.9453 170.262 17.7617 170.645 17.3945C171.035 17.0273 171.23 16.5781 171.23 16.0469C171.23 15.5391 171.043 15.1016 170.668 14.7344C170.293 14.3594 169.848 14.1719 169.332 14.1719ZM178.73 28H176.012C175.949 28 175.918 27.9609 175.918 27.8828L175.965 11.418C175.965 11.3398 175.996 11.3008 176.059 11.3008H178.754C178.816 11.3008 178.848 11.3398 178.848 11.418V17.1016L182.609 11.3945C182.672 11.332 182.73 11.3008 182.785 11.3008H185.539C185.609 11.3008 185.625 11.332 185.586 11.3945L181.438 18.0156L186.09 27.9062C186.129 27.9688 186.09 28 185.973 28H183.043C182.965 28 182.918 27.9688 182.902 27.9062L179.656 20.8516L178.824 22.1641V27.8828C178.824 27.9609 178.793 28 178.73 28Z" fill="#111111"/>
<circle cx="93.5" cy="52" r="4" fill="#111111"/>
</svg>
