<svg width="116" height="30" viewBox="0 0 116 30" fill="none" xmlns="http://www.w3.org/2000/svg">
<path d="M0.434062 1.32H10.2741V2H7.71406L13.2741 20.4C14.1274 17.8667 14.8474 15.7067 15.4341 13.92C16.0207 12.1333 16.5141 10.6267 16.9141 9.4C17.3141 8.17333 17.6207 7.2 17.8341 6.48C18.0741 5.73333 18.2474 5.14667 18.3541 4.72C18.4607 4.29333 18.5274 3.98667 18.5541 3.8C18.5807 3.58667 18.5941 3.41333 18.5941 3.28C18.5941 2.93333 18.4874 2.68 18.2741 2.52C18.0874 2.33333 17.8341 2.2 17.5141 2.12C17.2207 2.04 16.9007 2 16.5541 2C16.2341 2 15.9541 2 15.7141 2H15.5941V1.32H22.9541V2H22.6341C21.9941 2 21.5007 2.02667 21.1541 2.08C20.8074 2.10667 20.5274 2.22667 20.3141 2.44C20.1007 2.62667 19.9141 2.93333 19.7541 3.36C19.5941 3.78667 19.3941 4.37333 19.1541 5.12L11.3141 29.04L2.55406 2H0.434062V1.32ZM33.8916 0.8C35.4116 0.8 36.7982 1.21333 38.0516 2.04C39.3316 2.84 40.4249 3.90667 41.3316 5.24C42.2649 6.54667 42.9849 8.04 43.4916 9.72C43.9982 11.3733 44.2516 13.04 44.2516 14.72C44.2516 16.4267 43.9982 18.1067 43.4916 19.76C42.9849 21.3867 42.2649 22.8533 41.3316 24.16C40.4249 25.44 39.3316 26.48 38.0516 27.28C36.7982 28.08 35.4116 28.48 33.8916 28.48C32.3449 28.48 30.9316 28.08 29.6516 27.28C28.3716 26.4533 27.2782 25.3733 26.3716 24.04C25.4649 22.7067 24.7582 21.2 24.2516 19.52C23.7449 17.84 23.4916 16.1333 23.4916 14.4C23.4916 12.7467 23.7582 11.1067 24.2916 9.48C24.8516 7.85333 25.5982 6.4 26.5316 5.12C27.4916 3.84 28.5982 2.8 29.8516 2C31.1049 1.2 32.4516 0.8 33.8916 0.8ZM33.9716 1.44C33.1182 1.44 32.3849 1.66667 31.7716 2.12C31.1582 2.54667 30.6382 3.13333 30.2116 3.88C29.7849 4.6 29.4382 5.42667 29.1716 6.36C28.9316 7.26667 28.7316 8.21333 28.5716 9.2C28.4382 10.16 28.3449 11.12 28.2916 12.08C28.2382 13.0133 28.2116 13.8533 28.2116 14.6C28.2116 15.3733 28.2249 16.24 28.2516 17.2C28.3049 18.1333 28.3982 19.0933 28.5316 20.08C28.6649 21.04 28.8516 21.9867 29.0916 22.92C29.3316 23.8533 29.6516 24.6933 30.0516 25.44C30.4782 26.16 30.9982 26.7467 31.6116 27.2C32.2249 27.6267 32.9716 27.84 33.8516 27.84C34.7316 27.84 35.4782 27.6133 36.0916 27.16C36.7049 26.7067 37.2116 26.12 37.6116 25.4C38.0116 24.6533 38.3182 23.8133 38.5316 22.88C38.7449 21.92 38.9049 20.96 39.0116 20C39.1182 19.0133 39.1849 18.0533 39.2116 17.12C39.2382 16.16 39.2516 15.3067 39.2516 14.56C39.2516 13.8933 39.2249 13.1067 39.1716 12.2C39.1449 11.2933 39.0649 10.36 38.9316 9.4C38.7982 8.44 38.6116 7.48 38.3716 6.52C38.1582 5.56 37.8516 4.70667 37.4516 3.96C37.0516 3.21333 36.5716 2.61333 36.0116 2.16C35.4516 1.68 34.7716 1.44 33.9716 1.44ZM65.7206 9.88H64.9206C64.7873 8.89333 64.5606 7.93333 64.2406 7C63.9473 6.06667 63.5606 5.24 63.0806 4.52C62.6006 3.8 62.014 3.22667 61.3206 2.8C60.6273 2.37333 59.8273 2.16 58.9206 2.16C57.454 2.16 56.294 2.6 55.4406 3.48C54.5873 4.33333 53.934 5.4 53.4806 6.68C53.054 7.96 52.774 9.33333 52.6406 10.8C52.5073 12.24 52.4273 13.5467 52.4006 14.72C52.374 15.4667 52.3873 16.2933 52.4406 17.2C52.494 18.1067 52.6006 19.0267 52.7606 19.96C52.9206 20.8667 53.134 21.76 53.4006 22.64C53.694 23.52 54.0673 24.3067 54.5206 25C54.974 25.6667 55.5206 26.2133 56.1606 26.64C56.8006 27.04 57.5473 27.24 58.4006 27.24C59.6006 27.24 60.6273 26.88 61.4806 26.16C62.334 25.44 62.7606 24.28 62.7606 22.68V16.04H60.4006V15.36H69.7606V16.04H67.4406L67.3606 27.8C67.0406 27.1067 66.734 26.6533 66.4406 26.44C66.1473 26.2267 65.8273 26.16 65.4806 26.24C65.1606 26.2933 64.8006 26.4267 64.4006 26.64C64.0273 26.8533 63.6006 27.04 63.1206 27.2C62.3473 27.52 61.5473 27.7867 60.7206 28C59.9206 28.24 59.0806 28.36 58.2006 28.36C56.5473 28.36 55.054 28.04 53.7206 27.4C52.3873 26.76 51.2406 25.8533 50.2806 24.68C49.3206 23.5067 48.574 22.12 48.0406 20.52C47.534 18.8933 47.2806 17.0933 47.2806 15.12C47.2806 13.28 47.534 11.5067 48.0406 9.8C48.574 8.09333 49.3206 6.6 50.2806 5.32C51.2406 4.01333 52.374 2.97333 53.6806 2.2C55.014 1.42667 56.4806 1.04 58.0806 1.04C58.7206 1.04 59.3073 1.14667 59.8406 1.36C60.374 1.57333 60.8806 1.81333 61.3606 2.08C61.8406 2.32 62.294 2.54666 62.7206 2.76C63.1473 2.97333 63.5873 3.08 64.0406 3.08C64.414 3.08 64.654 2.96 64.7606 2.72C64.8673 2.45333 64.934 2.13333 64.9606 1.76H65.7206V9.88ZM94.4994 2H93.8594C93.326 2 92.886 2.01333 92.5394 2.04C92.2194 2.06667 91.9527 2.18667 91.7394 2.4C91.5527 2.58667 91.4194 2.90667 91.3394 3.36C91.286 3.81333 91.2594 4.45333 91.2594 5.28V18.92C91.2594 22.3867 90.5527 24.8667 89.1394 26.36C87.7527 27.8267 85.6594 28.56 82.8594 28.56C81.9794 28.56 81.006 28.4933 79.9394 28.36C78.8994 28.2267 77.8994 27.96 76.9394 27.56C76.006 27.1333 75.1794 26.5467 74.4594 25.8C73.766 25.0533 73.3394 24.0667 73.1794 22.84C73.126 22.5467 73.0994 22.1733 73.0994 21.72C73.0994 21.2667 73.0994 20.7733 73.0994 20.24V2H70.5794V1.32H80.6994V2H78.1394V19.24C78.1394 20.4667 78.206 21.6 78.3394 22.64C78.4994 23.6533 78.7794 24.5333 79.1794 25.28C79.606 26.0267 80.1794 26.6133 80.8994 27.04C81.6194 27.4667 82.5394 27.68 83.6594 27.68C84.886 27.68 85.926 27.4667 86.7794 27.04C87.6594 26.5867 88.3527 25.96 88.8594 25.16C89.3927 24.3333 89.7794 23.3467 90.0194 22.2C90.2594 21.0267 90.3794 19.7333 90.3794 18.32V5.28C90.3794 4.42667 90.326 3.77333 90.2194 3.32C90.1394 2.86667 89.9927 2.53333 89.7794 2.32C89.566 2.10667 89.286 1.98667 88.9394 1.96C88.5927 1.93333 88.166 1.93333 87.6594 1.96C87.526 1.96 87.3794 1.97333 87.2194 2C87.086 2 86.926 2 86.7394 2V1.32H94.4994V2ZM102.701 27.2H106.581C107.808 27.2 108.941 27.1733 109.981 27.12C111.048 27.04 111.968 26.7867 112.741 26.36C113.515 25.9067 114.128 25.2 114.581 24.24C115.035 23.28 115.261 21.9067 115.261 20.12H115.941V28H95.8613V27.32H97.8613V2H95.8613V1.32H115.901L115.941 7.88H115.261C115.048 6.41333 114.661 5.29333 114.101 4.52C113.568 3.72 112.901 3.14666 112.101 2.8C111.328 2.42666 110.435 2.22666 109.421 2.2C108.435 2.14667 107.368 2.12 106.221 2.12H102.701V13.92H103.741C104.568 13.92 105.288 13.8933 105.901 13.84C106.541 13.7867 107.075 13.6133 107.501 13.32C107.928 13.0267 108.248 12.5733 108.461 11.96C108.675 11.32 108.795 10.44 108.821 9.32H109.461V19.4H108.821C108.795 18.3867 108.688 17.5867 108.501 17C108.341 16.3867 108.101 15.9333 107.781 15.64C107.461 15.32 107.075 15.12 106.621 15.04C106.168 14.9333 105.648 14.88 105.061 14.88H102.701V27.2Z" fill="#B5CA88"/>
</svg>
